<svg width="358" height="192" viewBox="0 0 358 192" fill="none" xmlns="http://www.w3.org/2000/svg">
<path d="M269.521 116.55C292.795 98.1431 318.23 85.151 318.23 61.3292C318.23 44.012 309.019 32.382 292.522 32.382C273.863 32.382 262.763 45.9191 262.218 69.9963H227.589C227.589 27.7845 249.228 0.98291 293.339 0.98291C333.654 0.98291 356.383 28.3124 356.383 60.2394C356.383 95.1462 332.565 111.663 309.837 126.818C295.502 136.013 278.715 147.932 272.501 159.835H358V190.144H224.865C226.227 154.692 248.411 133.033 269.504 116.533L269.521 116.55Z" fill="white"/>
<path d="M141.426 179.144C141.426 175.347 144.303 172.316 147.93 172.316C151.556 172.316 154.433 175.347 154.433 179.144C154.433 182.941 151.556 185.972 147.93 185.972C144.303 185.972 141.426 182.941 141.426 179.144ZM153.463 179.144C153.463 175.926 150.909 173.372 147.947 173.372C144.984 173.372 142.43 175.926 142.43 179.144C142.43 182.362 144.984 184.916 147.947 184.916C150.909 184.916 153.463 182.362 153.463 179.144ZM149.836 182.839L147.708 179.382H146.516V182.839H145.529V175.364H148.628C149.904 175.364 151.147 175.721 151.147 177.339C151.147 178.803 150.16 179.348 148.9 179.382L151.045 182.839H149.836ZM147.708 178.344C148.593 178.344 150.126 178.531 150.126 177.339C150.126 176.573 149.172 176.437 148.406 176.437H146.499V178.361H147.691L147.708 178.344Z" fill="white"/>
<path d="M101.996 98.6369C113.692 98.6369 123.192 89.3057 123.499 77.6928V40.6745C123.465 28.8232 113.863 19.2196 101.996 19.2196C90.1299 19.2196 80.5279 28.8232 80.4768 40.6745V77.6928C80.7832 89.3057 90.3002 98.6369 101.996 98.6369ZM170.709 2.60054C157.344 2.60054 148.202 11.8296 136.829 17.3806C136.046 17.7722 135.195 18.1469 134.344 18.5044V77.6247C134.02 95.2143 119.668 109.398 102.013 109.398C84.3585 109.398 69.683 94.9078 69.683 77.0628C69.683 77.0117 69.683 18.5044 69.683 18.5044C68.8317 18.1298 67.9975 17.7552 67.2144 17.3636C55.8077 11.8296 46.6483 2.60054 33.2837 2.60054C10.6065 2.60054 -5.77146 25.8264 1.9238 47.2132C5.32879 56.6636 12.1558 61.7889 20.1745 66.9313C29.8276 73.1294 38.5274 80.7919 45.7119 89.7484C56.3525 103.013 63.4519 118.883 66.8228 135.502C68.4402 143.403 69.4276 153.909 70.0916 161.231C71.6238 178.122 83.3199 192 101.996 192C120.673 192 132.369 178.122 133.901 161.231C134.565 153.909 135.569 143.403 137.17 135.502C140.558 118.866 147.64 102.996 158.281 89.7484C165.465 80.7919 174.165 73.1294 183.818 66.9313C191.82 61.7889 198.664 56.6636 202.069 47.2132C209.781 25.8264 193.386 2.60054 170.709 2.60054Z" fill="white"/>
</svg>
